<svg  xmlns="http://www.w3.org/2000/svg" viewBox="0 0 16 16" width="20" height="20">
    <title>email</title>
    <g>
        <path d="M15,14H1a1,1,0,0,1-1-1V4A1,1,0,0,1,1,3H15a1,1,0,0,1,1,1v9A1,1,0,0,1,15,14Zm0-1v0ZM1,4v9H15V4Z" />
        <path d="M8,10a.5.5,0,0,1-.3-.1L.2,4.4A.5.5,0,1,1,.8,3.6L8,8.88,15.2,3.6A.5.5,0,0,1,15.8,4.4L8.3,9.9A.5.5,0,0,1,8,10Z" />
        <path d="M15.5,13.5a.5.5,0,0,1-.295-.1L9.064,8.9A.5.5,0,1,1,9.655,8.1l6.14,4.5a.5.5,0,0,1-.3.9Z" />
        <path d="M.5,13.5a.5.5,0,0,1-.3-.9l6.14-4.5a.5.5,0,1,1,.591.807L.8,13.4A.5.5,0,0,1,.5,13.5Z" />
    </g>
</svg>